<svg width="120" height="32" viewBox="0 0 120 32" fill="none" xmlns="http://www.w3.org/2000/svg">
  <defs>
    <linearGradient id="logoGradient" x1="0%" y1="0%" x2="100%" y2="0%">
      <stop offset="0%" style="stop-color:#3b82f6;stop-opacity:1" />
      <stop offset="100%" style="stop-color:#8b5cf6;stop-opacity:1" />
    </linearGradient>
  </defs>
  
  <!-- Composio Logo -->
  <g transform="translate(0, 4)">
    <!-- C for Composio -->
    <path d="M8 4 C8 2, 10 0, 12 0 L16 0 C18 0, 20 2, 20 4 L20 8 C20 10, 18 12, 16 12 L12 12 C10 12, 8 10, 8 8 L8 4 Z" fill="url(#logoGradient)"/>
    
    <!-- O for Composio -->
    <circle cx="28" cy="6" r="6" fill="url(#logoGradient)"/>
    <circle cx="28" cy="6" r="4" fill="white"/>
    
    <!-- M for Composio -->
    <path d="M36 0 L36 12 L38 12 L40 8 L42 12 L44 12 L44 0 L42 0 L42 10 L40 6 L38 10 L38 0 Z" fill="url(#logoGradient)"/>
    
    <!-- P for Composio -->
    <path d="M48 0 L48 12 L52 12 C54 12, 56 10, 56 8 L56 4 C56 2, 54 0, 52 0 L48 0 Z M50 2 L52 2 C53 2, 54 3, 54 4 L54 8 C54 9, 53 10, 52 10 L50 10 Z" fill="url(#logoGradient)"/>
    
    <!-- O for Composio -->
    <circle cx="62" cy="6" r="6" fill="url(#logoGradient)"/>
    <circle cx="62" cy="6" r="4" fill="white"/>
    
    <!-- S for Composio -->
    <path d="M72 0 L76 0 C78 0, 80 2, 80 4 L80 6 C80 8, 78 10, 76 10 L74 10 L74 8 L76 8 C77 8, 78 7, 78 6 L78 4 C78 3, 77 2, 76 2 L72 2 L72 0 Z M72 4 L72 6 L76 6 C78 6, 80 8, 80 10 L80 12 C80 14, 78 16, 76 16 L72 16 L72 4 Z" fill="url(#logoGradient)"/>
    
    <!-- I for Composio -->
    <rect x="84" y="0" width="2" height="12" fill="url(#logoGradient)"/>
    
    <!-- O for Composio -->
    <circle cx="92" cy="6" r="6" fill="url(#logoGradient)"/>
    <circle cx="92" cy="6" r="4" fill="white"/>
  </g>
  
  <!-- Text -->
  <text x="0" y="24" font-family="Inter, -apple-system, BlinkMacSystemFont, 'Segoe UI', Roboto, sans-serif" font-size="12" font-weight="600" fill="#1e293b">Composio</text>
</svg>
